<svg xmlns="http://www.w3.org/2000/svg" width="32" height="32" viewBox="0 0 32 32">
    <defs>
        <linearGradient id="logo-footer-a" x1="0%" y1="0%" x2="100%" y2="100%">
            <stop offset="0%" style="stop-color:rgb(255,0,0);"/>
        </linearGradient>
        <linearGradient id="logo-footer-b" x1="0%" y1="0%" x2="100%" y2="100%">
            <stop offset="0%" style="stop-color:rgb(0,255,0);stop-opacity:0.88"/>
        </linearGradient>
        <linearGradient id="logo-footer-c" x1="0%" y1="0%" x2="100%" y2="100%">
            <stop offset="0%" style="stop-color:rgb(0,0,255);"/>
        </linearGradient>
    </defs>
    <g fill="none" fill-rule="evenodd">
        <path fill="#FF0000" d="M31.12 7.482C28.327 19.146 19.147 28.326 7.483 31.121A12.04 12.04 0 0 1 .88 24.518C3.674 12.854 12.854 3.674 24.518 .879a12.04 12.04 0 0 1 6.603 6.603z"/>
        <path fill="url(#logo-footer-a)" d="M28.874 3.922l-24.91 24.99a12.026 12.026 0 0 1-3.085-4.394C3.674 12.854 12.854 3.674 24.518 .879a12.025 12.025 0 0 1 4.356 3.043z"/>
        <g opacity=".88">
            <path fill="url(#logo-footer-b)" d="M31.12 24.518a12.04 12.04 0 0 1-6.602 6.603C12.854 28.326 3.674 19.146 .879 7.482A12.04 12.04 0 0 1 7.482 .88c11.664 2.795 20.844 11.975 23.639 23.639z"/>
            <path fill="url(#logo-footer-c)" d="M24.518 31.12C12.854 28.327 3.674 19.147 .879 7.483A12.015 12.015 0 0 1 3.46 3.57L28.47 28.5a12.016 12.016 0 0 1-3.951 2.62z"/>
        </g>
    </g>
</svg>
